<?xml version="1.0" encoding="utf-8"?>
<!-- Generator: Adobe Illustrator 21.0.2, SVG Export Plug-In . SVG Version: 6.00 Build 0)  -->
<svg version="1.1" xmlns="http://www.w3.org/2000/svg" xmlns:xlink="http://www.w3.org/1999/xlink" x="0px" y="0px"
	 viewBox="0 0 896 210" style="enable-background:new 0 0 896 210;" xml:space="preserve">
<style type="text/css">
	.st0{fill-rule:evenodd;clip-rule:evenodd;fill:#DEDEDE;}
	.st1{fill-rule:evenodd;clip-rule:evenodd;fill:#216CCE;}
	.st2{fill-rule:evenodd;clip-rule:evenodd;fill:#FFFFFF;}
	.st3{fill:#216CCE;}
	.st4{fill:#FFFFFF;}
</style>
<g id="Book_1_">
	<g id="Rounded_Rectangle_1">
		<g>
			<path class="st0" d="M886,10H756c-5.5,0-10,4.5-10,10v180c0,5.5,4.5,10,10,10h130c5.5,0,10-4.5,10-10V20
				C896,14.5,891.5,10,886,10z"/>
		</g>
	</g>
	<g id="Rounded_Rectangle_1_copy">
		<g>
			<path class="st1" d="M876,0H746c-5.5,0-10,4.5-10,10v180c0,5.5,4.5,10,10,10h130c5.5,0,10-4.5,10-10V10C886,4.5,881.5,0,876,0z"
				/>
		</g>
	</g>
	<g id="Rounded_Rectangle_2">
		<g>
			<path class="st2" d="M753.5,10c-4.1,0-7.5,3.4-7.5,7.5v165c0,4.1,3.4,7.5,7.5,7.5s7.5-3.4,7.5-7.5v-165
				C761,13.4,757.6,10,753.5,10z"/>
		</g>
	</g>
</g>
<g id="eJournal">
	<g>
		<path class="st3" d="M46.8,184.2c-14.3,0-25.6-4.8-33.9-14.3c-8.3-9.5-12.5-22.6-12.5-39.3c0-16.7,4.2-29.7,12.6-39.2
			c8.4-9.5,19.7-14.2,33.8-14.2c12.8,0,23.3,4.1,31.6,12.2c8.3,8.1,12.4,20,12.4,35.6c0,5.7-0.3,10.2-0.8,13.4H21.2
			c0.1,8.1,2.8,14.7,7.9,19.8c5.1,5.1,11.1,7.6,17.9,7.6c8.8,0,15.9-3.5,21.2-10.4l13.6,14C73.5,179.3,61.9,184.2,46.8,184.2z
			 M21.2,121.6H70c-0.1-8.8-2.5-15.3-7-19.6c-4.5-4.3-9.9-6.4-16.2-6.4c-7.1,0-13,2.1-17.7,6.3C24.4,106.1,21.7,112.7,21.2,121.6z"
			/>
		<path class="st4" d="M138.2,184.2c-10.1,0-19.1-2.3-26.8-6.8c-7.7-4.5-13.6-11.1-17.6-19.6l18-8.8c4.9,10.1,13.7,15.2,26.4,15.2
			c7.7,0,14-2.3,18.7-6.9c4.7-4.6,7.1-13,7.1-25.3V41.8h20.8v93c0,9.3-1.4,17.4-4.2,24.1c-2.8,6.7-6.6,11.9-11.3,15.4
			c-4.7,3.5-9.7,6.1-14.8,7.6C149.4,183.4,143.9,184.2,138.2,184.2z"/>
		<path class="st4" d="M281.6,170c-8.4,9.5-19.8,14.2-34.2,14.2s-25.8-4.7-34.1-14.2c-8.3-9.5-12.5-22.5-12.5-39.2
			c0-16.7,4.2-29.8,12.5-39.3c8.3-9.5,19.7-14.3,34.1-14.3s25.8,4.8,34.2,14.3c8.4,9.5,12.6,22.6,12.6,39.3
			C294.2,147.5,290,160.5,281.6,170z M247.4,164.6c8,0,14.3-3,19-9c4.7-6,7-14.3,7-24.8c0-10.5-2.3-18.8-7-24.9
			c-4.7-6.1-11-9.1-19-9.1c-7.9,0-14.1,3-18.8,9.1c-4.7,6.1-7,14.4-7,24.9c0,10.4,2.3,18.6,7,24.7
			C233.3,161.6,239.5,164.6,247.4,164.6z"/>
		<path class="st4" d="M370.4,181.8V172c-6.4,8.1-15.2,12.2-26.4,12.2c-24.5,0-36.8-14.5-36.8-43.6v-61H328v61
			c0,8.1,1.9,14.2,5.6,18.1c3.7,3.9,8.7,5.9,14.8,5.9c14.7,0,22-7.9,22-23.6V79.6h20.8v102.2H370.4z"/>
		<path class="st4" d="M410.2,181.8V79.6H431V92c4.5-9.9,12.1-14.8,22.8-14.8c6.7,0,12.4,2.1,17.2,6.2l-3,19.2
			c-4.9-3.3-10.3-5-16.2-5c-5.6,0-10.5,2.1-14.6,6.3c-4.1,4.2-6.2,11-6.2,20.5v57.4H410.2z"/>
		<path class="st4" d="M547.8,181.8v-61c0-8.1-1.9-14.2-5.6-18.1c-3.7-3.9-8.7-5.9-14.8-5.9c-14.7,0-22,7.9-22,23.6v61.4h-20.8V79.6
			h20.8v9.8c6.4-8.1,15.2-12.2,26.4-12.2c24.5,0,36.8,14.5,36.8,43.6v61H547.8z"/>
		<path class="st4" d="M645,181.8V173c-7.2,7.5-16.5,11.2-28,11.2c-10.8,0-19.6-3-26.3-8.9c-6.7-5.9-10.1-14.4-10.1-25.3
			c0-11.1,3.8-19.5,11.4-25.2c7.6-5.7,16.9-8.6,27.8-8.6c10,0,18.4,2,25.2,6v-5.6c0-7.6-1.7-13-5.2-16.2c-3.5-3.2-9-4.8-16.6-4.8
			c-11.2,0-20.9,3.1-29.2,9.2l-6.2-17c10.3-7.1,23-10.6,38.2-10.6c5.1,0,9.6,0.4,13.6,1.3c4,0.9,8.1,2.5,12.2,5
			c4.1,2.5,7.4,6.4,9.7,11.9c2.3,5.5,3.5,12.2,3.5,20.2v66.2H645z M620.8,165.8c9.6,0,17.7-3.7,24.2-11v-15.6
			c-6.3-3.3-13.5-5-21.8-5c-6.7,0-12.1,1.3-16.3,3.9c-4.2,2.6-6.3,6.6-6.3,11.9c0,4.9,1.7,8.8,5.2,11.6
			C609.3,164.4,614.3,165.8,620.8,165.8z"/>
		<path class="st4" d="M683,181.8V47.2l20.8-9.8v144.4H683z"/>
	</g>
</g>
</svg>
