<?xml version="1.0" standalone="no"?>
<!DOCTYPE svg PUBLIC "-//W3C//DTD SVG 20010904//EN"
 "http://www.w3.org/TR/2001/REC-SVG-20010904/DTD/svg10.dtd">
<svg version="1.0" xmlns="http://www.w3.org/2000/svg"
 width="471.000000pt" height="471.000000pt" viewBox="0 0 471.000000 471.000000"
 preserveAspectRatio="xMidYMid meet">
<metadata>
Created by potrace 1.11, written by Peter Selinger 2001-2013
</metadata>
<g transform="translate(0.000000,471.000000) scale(0.100000,-0.100000)"
fill="#000000" stroke="none">
<path d="M638 4689 c-23 -12 -46 -35 -58 -59 -20 -39 -20 -55 -20 -2165 0
-2111 0 -2126 20 -2165 13 -26 34 -47 60 -60 39 -20 51 -20 1617 -18 l1578 3
31 22 c69 50 64 -138 64 2217 0 2112 0 2127 -20 2166 -13 26 -34 47 -60 60
-39 20 -55 20 -1607 20 -1541 -1 -1569 -1 -1605 -21z m379 -227 c68 -48 63
111 63 -1992 0 -2107 5 -1944 -64 -1993 -43 -31 -129 -31 -172 0 -70 50 -64
-116 -62 2005 l3 1913 22 31 c47 65 146 82 210 36z"/>
</g>
</svg>
